<svg width="81" height="78" viewBox="0 0 81 78" fill="none" xmlns="http://www.w3.org/2000/svg">
<path d="M44.5609 71.6451H9.73835C5.46457 71.6451 2 68.1807 2 63.9068V9.73835C2 5.46457 5.46457 2 9.73835 2H71.6451C75.919 2 79.3835 5.46457 79.3835 9.73835V44.5609" stroke="#FDFDFD" stroke-width="3" stroke-linecap="round"/>
<path d="M2 17.4767H79.3835" stroke="#FDFDFD" stroke-width="3" stroke-linecap="round" stroke-linejoin="round"/>
<path d="M13.6075 9.777L13.6462 9.73401" stroke="#FDFDFD" stroke-width="3" stroke-linecap="round" stroke-linejoin="round"/>
<path d="M25.215 9.777L25.2537 9.73401" stroke="#FDFDFD" stroke-width="3" stroke-linecap="round" stroke-linejoin="round"/>
<path d="M36.8226 9.777L36.8613 9.73401" stroke="#FDFDFD" stroke-width="3" stroke-linecap="round" stroke-linejoin="round"/>
<path d="M72.1253 68.2344C74.2197 66.1346 75.5143 63.2374 75.5143 60.0376C75.5143 53.6267 70.3176 48.4301 63.9068 48.4301C57.4959 48.4301 52.2993 53.6267 52.2993 60.0376C52.2993 66.4484 57.4959 71.6451 63.9068 71.6451C67.1178 71.6451 70.0239 70.3412 72.1253 68.2344ZM72.1253 68.2344L79.3835 75.5143" stroke="#FDFDFD" stroke-width="3" stroke-linecap="round" stroke-linejoin="round"/>
</svg>
