<svg width="94" height="99" viewBox="0 0 94 99" fill="none" xmlns="http://www.w3.org/2000/svg">
<path d="M84.5 89.5L92 97" stroke="#FDFDFD" stroke-width="3" stroke-linecap="round" stroke-linejoin="round"/>
<path d="M62 79.5C62 86.4035 67.5965 92 74.5 92C77.958 92 81.0875 90.596 83.3505 88.327C85.6055 86.066 87 82.946 87 79.5C87 72.5965 81.4035 67 74.5 67C67.5965 67 62 72.5965 62 79.5Z" stroke="#FDFDFD" stroke-width="3" stroke-linecap="round" stroke-linejoin="round"/>
<path d="M2 17V47C2 47 2 62 37 62C72 62 72 47 72 47V17" stroke="#FDFDFD" stroke-width="3" stroke-linecap="round" stroke-linejoin="round"/>
<path d="M37 2C72 2 72 17 72 17C72 17 72 32 37 32C2 32 2 17 2 17C2 17 2 2 37 2Z" stroke="#FDFDFD" stroke-width="3" stroke-linecap="round" stroke-linejoin="round"/>
<path d="M37 92C2 92 2 77 2 77V47" stroke="#FDFDFD" stroke-width="3" stroke-linecap="round" stroke-linejoin="round"/>
</svg>
