<svg width="107" height="107" viewBox="0 0 107 107" fill="none" xmlns="http://www.w3.org/2000/svg">
<mask id="mask0_8_543" style="mask-type:luminance" maskUnits="userSpaceOnUse" x="0" y="0" width="107" height="107">
<path d="M106.15 0H0V106.15H106.15V0Z" fill="white"/>
</mask>
<g mask="url(#mask0_8_543)">
<path d="M78.1725 50.4545L69.7455 75.7351C69.4717 76.5564 68.8145 77.1928 67.9843 77.4396L16.336 92.7942C14.2781 93.4059 12.3832 91.4483 13.0622 89.4116L29.8312 39.1045C30.075 38.3728 30.6252 37.7834 31.3383 37.4898L55.1627 27.6797C56.1534 27.2718 57.2923 27.4995 58.05 28.2571L77.5311 47.7389C78.2419 48.4496 78.4905 49.501 78.1725 50.4545Z"  stroke="#FDFDFD" stroke-width="3" stroke-linecap="round" stroke-linejoin="round"/>
<path d="M14.5775 91.1193L42.7248 62.9718L14.5775 91.1193Z" />
<path d="M14.5775 91.1193L42.7248 62.9718" stroke="#FDFDFD" stroke-width="3" stroke-linecap="round" stroke-linejoin="round"/>
<path d="M78.6913 48.8985L91.2015 36.3885C94.6558 32.9339 94.6558 27.3331 91.2015 23.8786L81.8192 14.4961C78.3644 11.0417 72.7637 11.0417 69.3089 14.4961L56.7992 27.006" />
<path d="M78.6913 48.8985L91.2015 36.3885C94.6558 32.9339 94.6558 27.3331 91.2015 23.8786L81.8192 14.4961C78.3644 11.0417 72.7637 11.0417 69.3089 14.4961L56.7992 27.006" stroke="#FDFDFD" stroke-width="3" stroke-linecap="round" stroke-linejoin="round"/>
<path d="M52.1082 53.5894C49.5172 50.9985 45.3163 50.9985 42.7256 53.5894C40.1347 56.1804 40.1347 60.3813 42.7256 62.9718C45.3163 65.5627 49.5172 65.5627 52.1082 62.9718C54.6987 60.3813 54.6987 56.1804 52.1082 53.5894Z"  stroke="#FDFDFD" stroke-width="3" stroke-linecap="round" stroke-linejoin="round"/>
</g>
</svg>
